HIERARCHY
ROOT mixamorig:Hips
{
	OFFSET -0.000008 104.274872 1.554316
	CHANNELS 6 Xposition Yposition Zposition Xrotation Yrotation Zrotation
	JOINT mixamorig:Spine
	{
		OFFSET -0.000005 10.181595 0.131519
		CHANNELS 6 Xposition Yposition Zposition Xrotation Yrotation Zrotation
		JOINT mixamorig:Spine1
		{
			OFFSET -0.000000 9.893959 -1.470707
			CHANNELS 6 Xposition Yposition Zposition Xrotation Yrotation Zrotation
			JOINT mixamorig:Spine2
			{
				OFFSET -0.000000 9.220757 -1.370641
				CHANNELS 6 Xposition Yposition Zposition Xrotation Yrotation Zrotation
				JOINT mixamorig:Neck
				{
					OFFSET 0.000001 16.740417 -2.049036
					CHANNELS 6 Xposition Yposition Zposition Xrotation Yrotation Zrotation
					JOINT mixamorig:Head
					{
						OFFSET 0.000000 9.617874 1.685006
						CHANNELS 6 Xposition Yposition Zposition Xrotation Yrotation Zrotation
						JOINT mixamorig:HeadTop_End
						{
							OFFSET 0.000002 22.037354 7.501101
							CHANNELS 6 Xposition Yposition Zposition Xrotation Yrotation Zrotation
							End Site
							{
								OFFSET 0.000168 2310.654297 -282.823242
							}
						}
					}
				}
				JOINT mixamorig:RightShoulder
				{
					OFFSET -4.569970 11.014908 -2.160885
					CHANNELS 6 Xposition Yposition Zposition Xrotation Yrotation Zrotation
					JOINT mixamorig:RightArm
					{
						OFFSET -10.592851 -0.524811 -2.232101
						CHANNELS 6 Xposition Yposition Zposition Xrotation Yrotation Zrotation
						JOINT mixamorig:RightForeArm
						{
							OFFSET -27.841511 0.000031 -0.000004
							CHANNELS 6 Xposition Yposition Zposition Xrotation Yrotation Zrotation
							JOINT mixamorig:RightHand
							{
								OFFSET -28.328831 -0.000015 0.000015
								CHANNELS 6 Xposition Yposition Zposition Xrotation Yrotation Zrotation
								JOINT mixamorig:RightHandThumb1
								{
									OFFSET -2.464806 -1.573990 2.681852
									CHANNELS 6 Xposition Yposition Zposition Xrotation Yrotation Zrotation
									JOINT mixamorig:RightHandThumb2
									{
										OFFSET -3.215179 -1.872803 1.924282
										CHANNELS 6 Xposition Yposition Zposition Xrotation Yrotation Zrotation
										JOINT mixamorig:RightHandThumb3
										{
											OFFSET -2.654831 -1.527969 1.512609
											CHANNELS 6 Xposition Yposition Zposition Xrotation Yrotation Zrotation
											JOINT mixamorig:RightHandThumb4
											{
												OFFSET -2.018814 -1.152008 1.108052
												CHANNELS 6 Xposition Yposition Zposition Xrotation Yrotation Zrotation
												End Site
												{
													OFFSET -188.809540 -114.533607 132.431396
												}
											}
										}
									}
								}
								JOINT mixamorig:RightHandIndex1
								{
									OFFSET -9.108284 -0.517868 2.259835
									CHANNELS 6 Xposition Yposition Zposition Xrotation Yrotation Zrotation
									JOINT mixamorig:RightHandIndex2
									{
										OFFSET -3.699989 0.000000 0.001215
										CHANNELS 6 Xposition Yposition Zposition Xrotation Yrotation Zrotation
										JOINT mixamorig:RightHandIndex3
										{
											OFFSET -2.850006 0.000031 -0.000522
											CHANNELS 6 Xposition Yposition Zposition Xrotation Yrotation Zrotation
											JOINT mixamorig:RightHandIndex4
											{
												OFFSET -2.772186 -0.000015 -0.000020
												CHANNELS 6 Xposition Yposition Zposition Xrotation Yrotation Zrotation
												End Site
												{
													OFFSET -277.218445 0.000000 -0.050231
												}
											}
										}
									}
								}
								JOINT mixamorig:RightHandMiddle1
								{
									OFFSET -9.532516 -0.000031 -0.000023
									CHANNELS 6 Xposition Yposition Zposition Xrotation Yrotation Zrotation
									JOINT mixamorig:RightHandMiddle2
									{
										OFFSET -3.700005 -0.000015 0.003713
										CHANNELS 6 Xposition Yposition Zposition Xrotation Yrotation Zrotation
										JOINT mixamorig:RightHandMiddle3
										{
											OFFSET -2.949974 0.000015 -0.002054
											CHANNELS 6 Xposition Yposition Zposition Xrotation Yrotation Zrotation
											JOINT mixamorig:RightHandMiddle4
											{
												OFFSET -2.946640 0.000000 -0.000156
												CHANNELS 6 Xposition Yposition Zposition Xrotation Yrotation Zrotation
												End Site
												{
													OFFSET -294.664337 0.000000 -0.113670
												}
											}
										}
									}
								}
								JOINT mixamorig:RightHandRing1
								{
									OFFSET -9.103600 -0.043076 -1.865134
									CHANNELS 6 Xposition Yposition Zposition Xrotation Yrotation Zrotation
									JOINT mixamorig:RightHandRing2
									{
										OFFSET -3.379288 0.000000 -0.001055
										CHANNELS 6 Xposition Yposition Zposition Xrotation Yrotation Zrotation
										JOINT mixamorig:RightHandRing3
										{
											OFFSET -2.889687 -0.000015 0.000379
											CHANNELS 6 Xposition Yposition Zposition Xrotation Yrotation Zrotation
											JOINT mixamorig:RightHandRing4
											{
												OFFSET -2.638809 -0.000015 0.000941
												CHANNELS 6 Xposition Yposition Zposition Xrotation Yrotation Zrotation
												End Site
												{
													OFFSET -263.880371 0.000000 0.516020
												}
											}
										}
									}
								}
								JOINT mixamorig:RightHandPinky1
								{
									OFFSET -8.076683 -0.486710 -3.806280
									CHANNELS 6 Xposition Yposition Zposition Xrotation Yrotation Zrotation
									JOINT mixamorig:RightHandPinky2
									{
										OFFSET -3.600014 -0.000015 -0.003747
										CHANNELS 6 Xposition Yposition Zposition Xrotation Yrotation Zrotation
										JOINT mixamorig:RightHandPinky3
										{
											OFFSET -2.099983 0.000000 -0.005739
											CHANNELS 6 Xposition Yposition Zposition Xrotation Yrotation Zrotation
											JOINT mixamorig:RightHandPinky4
											{
												OFFSET -2.115768 -0.000031 -0.003680
												CHANNELS 6 Xposition Yposition Zposition Xrotation Yrotation Zrotation
												End Site
												{
													OFFSET -211.577087 0.000000 -0.350686
												}
											}
										}
									}
								}
							}
						}
					}
				}
				JOINT mixamorig:LeftShoulder
				{
					OFFSET 4.570447 11.014725 -2.160855
					CHANNELS 6 Xposition Yposition Zposition Xrotation Yrotation Zrotation
					JOINT mixamorig:LeftArm
					{
						OFFSET 10.592371 -0.524597 -2.232119
						CHANNELS 6 Xposition Yposition Zposition Xrotation Yrotation Zrotation
						JOINT mixamorig:LeftForeArm
						{
							OFFSET 27.841532 -0.000031 0.000026
							CHANNELS 6 Xposition Yposition Zposition Xrotation Yrotation Zrotation
							JOINT mixamorig:LeftHand
							{
								OFFSET 28.328846 -0.000061 0.000022
								CHANNELS 6 Xposition Yposition Zposition Xrotation Yrotation Zrotation
								JOINT mixamorig:LeftHandThumb1
								{
									OFFSET 2.466141 -1.576172 2.681732
									CHANNELS 6 Xposition Yposition Zposition Xrotation Yrotation Zrotation
									JOINT mixamorig:LeftHandThumb2
									{
										OFFSET 3.217812 -1.872070 1.916482
										CHANNELS 6 Xposition Yposition Zposition Xrotation Yrotation Zrotation
										JOINT mixamorig:LeftHandThumb3
										{
											OFFSET 2.656029 -1.528778 1.514513
											CHANNELS 6 Xposition Yposition Zposition Xrotation Yrotation Zrotation
											JOINT mixamorig:LeftHandThumb4
											{
												OFFSET 2.020889 -1.154053 1.115139
												CHANNELS 6 Xposition Yposition Zposition Xrotation Yrotation Zrotation
												End Site
												{
													OFFSET 190.885437 -115.081749 130.048782
												}
											}
										}
									}
								}
								JOINT mixamorig:LeftHandIndex1
								{
									OFFSET 9.109314 -0.518021 2.259871
									CHANNELS 6 Xposition Yposition Zposition Xrotation Yrotation Zrotation
									JOINT mixamorig:LeftHandIndex2
									{
										OFFSET 3.699989 0.000000 -0.000322
										CHANNELS 6 Xposition Yposition Zposition Xrotation Yrotation Zrotation
										JOINT mixamorig:LeftHandIndex3
										{
											OFFSET 2.850006 0.000000 0.000352
											CHANNELS 6 Xposition Yposition Zposition Xrotation Yrotation Zrotation
											JOINT mixamorig:LeftHandIndex4
											{
												OFFSET 2.774864 -0.000031 -0.000027
												CHANNELS 6 Xposition Yposition Zposition Xrotation Yrotation Zrotation
												End Site
												{
													OFFSET 277.486267 0.000000 -0.009857
												}
											}
										}
									}
								}
								JOINT mixamorig:LeftHandMiddle1
								{
									OFFSET 9.533394 0.000061 0.000044
									CHANNELS 6 Xposition Yposition Zposition Xrotation Yrotation Zrotation
									JOINT mixamorig:LeftHandMiddle2
									{
										OFFSET 3.699989 -0.000015 -0.000231
										CHANNELS 6 Xposition Yposition Zposition Xrotation Yrotation Zrotation
										JOINT mixamorig:LeftHandMiddle3
										{
											OFFSET 2.949997 -0.000015 -0.000059
											CHANNELS 6 Xposition Yposition Zposition Xrotation Yrotation Zrotation
											JOINT mixamorig:LeftHandMiddle4
											{
												OFFSET 2.952896 0.000031 0.000063
												CHANNELS 6 Xposition Yposition Zposition Xrotation Yrotation Zrotation
												End Site
												{
													OFFSET 295.289337 0.000000 0.022810
												}
											}
										}
									}
								}
								JOINT mixamorig:LeftHandRing1
								{
									OFFSET 9.104523 -0.042999 -1.865074
									CHANNELS 6 Xposition Yposition Zposition Xrotation Yrotation Zrotation
									JOINT mixamorig:LeftHandRing2
									{
										OFFSET 3.150009 -0.000031 0.000043
										CHANNELS 6 Xposition Yposition Zposition Xrotation Yrotation Zrotation
										JOINT mixamorig:LeftHandRing3
										{
											OFFSET 2.949982 -0.000015 0.000040
											CHANNELS 6 Xposition Yposition Zposition Xrotation Yrotation Zrotation
											JOINT mixamorig:LeftHandRing4
											{
												OFFSET 2.644348 0.000000 0.000057
												CHANNELS 6 Xposition Yposition Zposition Xrotation Yrotation Zrotation
												End Site
												{
													OFFSET 264.434631 0.000000 0.012105
												}
											}
										}
									}
								}
								JOINT mixamorig:LeftHandPinky1
								{
									OFFSET 8.077789 -0.486847 -3.806259
									CHANNELS 6 Xposition Yposition Zposition Xrotation Yrotation Zrotation
									JOINT mixamorig:LeftHandPinky2
									{
										OFFSET 3.599953 0.000031 0.014727
										CHANNELS 6 Xposition Yposition Zposition Xrotation Yrotation Zrotation
										JOINT mixamorig:LeftHandPinky3
										{
											OFFSET 2.100021 0.000015 0.007705
											CHANNELS 6 Xposition Yposition Zposition Xrotation Yrotation Zrotation
											JOINT mixamorig:LeftHandPinky4
											{
												OFFSET 2.125504 0.000031 0.007517
												CHANNELS 6 Xposition Yposition Zposition Xrotation Yrotation Zrotation
												End Site
												{
													OFFSET 212.550781 0.000000 0.625752
												}
											}
										}
									}
								}
							}
						}
					}
				}
			}
		}
	}
	JOINT mixamorig:RightUpLeg
	{
		OFFSET -8.207787 -6.751648 -1.599560
		CHANNELS 6 Xposition Yposition Zposition Xrotation Yrotation Zrotation
		JOINT mixamorig:RightLeg
		{
			OFFSET -0.000002 -44.370117 0.345942
			CHANNELS 6 Xposition Yposition Zposition Xrotation Yrotation Zrotation
			JOINT mixamorig:RightFoot
			{
				OFFSET 0.000003 -44.423679 -3.043532
				CHANNELS 6 Xposition Yposition Zposition Xrotation Yrotation Zrotation
				JOINT mixamorig:RightToeBase
				{
					OFFSET -0.000002 -8.728671 10.710558
					CHANNELS 6 Xposition Yposition Zposition Xrotation Yrotation Zrotation
					JOINT mixamorig:RightToe_End
					{
						OFFSET -0.000001 -0.000679 9.278119
						CHANNELS 6 Xposition Yposition Zposition Xrotation Yrotation Zrotation
						End Site
						{
							OFFSET 0.000000 -0.067690 927.812134
						}
					}
				}
			}
		}
	}
	JOINT mixamorig:LeftUpLeg
	{
		OFFSET 8.207793 -6.751686 -1.599556
		CHANNELS 6 Xposition Yposition Zposition Xrotation Yrotation Zrotation
		JOINT mixamorig:LeftLeg
		{
			OFFSET -0.000004 -44.370014 0.346954
			CHANNELS 6 Xposition Yposition Zposition Xrotation Yrotation Zrotation
			JOINT mixamorig:LeftFoot
			{
				OFFSET -0.000001 -44.423672 -3.044401
				CHANNELS 6 Xposition Yposition Zposition Xrotation Yrotation Zrotation
				JOINT mixamorig:LeftToeBase
				{
					OFFSET -0.000002 -8.728669 10.710558
					CHANNELS 6 Xposition Yposition Zposition Xrotation Yrotation Zrotation
					JOINT mixamorig:LeftToe_End
					{
						OFFSET -0.000003 -0.000679 9.278133
						CHANNELS 6 Xposition Yposition Zposition Xrotation Yrotation Zrotation
						End Site
						{
							OFFSET 0.000000 -0.068021 927.813477
						}
					}
				}
			}
		}
	}
}
MOTION
Frames: 3
Frame Time: 0.033333
0.000006 104.270477 1.554256 0.000010 0.000003 -0.000113 -0.000005 10.181587 0.131522 0.000001 -0.000003 0.000084 -0.000000 9.893967 -1.470711 0.000001 0.000000 -0.000000 -0.000000 9.220802 -1.370642 0.000000 -0.000000 -0.000000 0.000001 16.740433 -2.049030 0.000000 -0.000000 -0.000000 0.000000 9.617859 1.685014 0.000000 0.000000 0.000000 0.000002 22.037384 7.501101 0.000000 -0.000000 0.000000 -4.569968 11.014880 -2.160881 0.000008 0.000001 -0.000038 -10.592875 -0.524764 -2.231906 75.499087 28.709918 -22.415974 -27.841522 0.000033 0.000533 -54.873685 108.152603 71.248927 -28.328844 0.000004 0.000028 -0.000321 -0.000045 0.000007 -2.464457 -1.573675 2.682291 -53.998243 -179.137912 -31.558910 -3.215279 -1.872610 1.924657 154.172983 30.659387 -1.780433 -2.654950 -1.527871 1.513091 147.358695 26.700258 -38.664854 -2.018822 -1.152016 1.108059 -0.000002 -0.000003 0.000000 -9.108380 -0.517544 2.260117 95.582302 16.758749 -18.499911 -3.700065 0.000325 0.001493 91.103372 14.315464 -14.566610 -2.850090 0.000369 -0.000285 90.053353 11.667297 -11.677157 -2.772158 -0.000015 -0.000018 -0.000002 0.000001 0.000001 -9.532578 0.000280 0.000215 85.213980 17.465017 -16.216233 -3.700079 0.000333 0.003920 83.143346 13.486531 -11.888122 -2.950063 0.000323 -0.001862 84.584755 12.025632 -10.939971 -2.946628 0.000014 -0.000152 -0.000000 -0.000001 0.000001 -9.103696 -0.042777 -1.864922 80.339841 19.961313 -16.860486 -3.379323 0.000300 -0.000864 80.836402 11.253672 -9.607388 -2.889771 0.000339 0.000603 86.707448 7.087514 -6.735524 -2.638814 -0.000006 0.000944 -0.000002 0.000001 0.000002 -8.076749 -0.486411 -3.806080 71.365628 18.029060 -12.887006 -3.600049 0.000277 -0.003576 76.008783 8.780302 -6.585733 -2.100013 0.000302 -0.005549 79.556575 5.431231 -4.340172 -2.115778 -0.000056 -0.003677 -0.000001 0.000002 -0.000005 4.570446 11.014691 -2.160851 -0.000018 0.000010 -0.000021 10.592404 -0.524473 -2.232364 74.300833 -13.906625 10.558900 27.841829 0.000092 -0.000207 104.704157 -69.981510 84.438521 28.328846 -0.000029 0.000023 0.000019 -0.000088 0.000000 2.465872 -1.576071 2.681885 -53.003187 178.400334 28.379337 3.217844 -1.871829 1.916390 157.625658 -27.062319 22.392796 2.656092 -1.528672 1.514469 135.621520 -28.964664 50.056483 2.020872 -1.154069 1.115144 0.000004 0.000003 0.000001 9.109374 -0.517874 2.259720 83.145812 -14.904506 13.225211 3.700035 0.000151 -0.000470 79.353377 -13.942567 11.597843 2.850046 0.000181 0.000217 77.095146 -12.187483 9.723220 2.774899 -0.000032 -0.000026 -0.000000 -0.000000 -0.000002 9.533472 0.000216 -0.000105 83.464891 -13.603111 12.137659 3.700055 0.000159 -0.000373 84.499303 -12.685348 11.528187 2.950061 0.000161 -0.000181 84.093337 -16.660117 15.047923 2.952865 -0.000017 0.000062 0.000002 0.000000 0.000000 9.104581 -0.042848 -1.865225 82.782774 -12.224308 10.784689 3.150058 0.000188 -0.000095 87.396642 -12.869763 12.304134 2.950046 0.000166 -0.000069 89.085898 -15.412431 15.173147 2.644322 0.000015 0.000056 -0.000001 0.000001 0.000001 8.077838 -0.486747 -3.806396 68.719312 -14.808036 10.557253 3.599992 0.000145 0.014580 69.697320 -12.817472 9.302578 2.100021 0.000159 0.007546 73.301925 -12.755237 9.874188 2.125503 -0.000015 0.007518 -0.000003 0.000002 0.000000 -8.207786 -6.751667 -1.599560 -0.077001 -0.000003 0.000080 -0.000002 -44.370110 0.345938 0.153719 -0.000000 -0.000000 0.000000 -44.423679 -3.043532 -0.076700 0.000000 -0.000002 -0.000006 -8.728667 10.710559 -0.000009 -0.000000 -0.000000 -0.000001 -0.000679 9.278123 0.000000 -0.000000 -0.000000 8.207792 -6.751710 -1.599556 -0.074518 -0.000003 0.000081 -0.000002 -44.370014 0.346960 0.148822 0.000002 0.000000 -0.000001 -44.423664 -3.044403 -0.074314 0.000000 -0.000002 -0.000004 -8.728671 10.710558 0.000007 -0.000000 -0.000000 0.000000 -0.000680 9.278137 -0.000000 0.000000 -0.000001 
0.000006 104.270477 1.554256 0.000010 0.000003 -0.000113 -0.000005 10.181587 0.131522 0.000001 -0.000003 0.000084 -0.000000 9.893967 -1.470711 0.000001 0.000000 -0.000000 -0.000000 9.220802 -1.370642 0.000000 -0.000000 -0.000000 0.000001 16.740433 -2.049030 0.000000 -0.000000 -0.000000 0.000000 9.617859 1.685014 0.000000 0.000000 0.000000 0.000002 22.037384 7.501101 0.000000 -0.000000 0.000000 -4.569968 11.014880 -2.160881 0.000008 0.000001 -0.000038 -10.592875 -0.524758 -2.231908 74.710043 28.496188 -21.939261 -27.841524 0.000015 0.000534 -51.928292 106.283870 66.011955 -28.328842 0.000022 0.000025 -0.000319 -0.000046 0.000006 -2.464430 -1.573717 2.682311 -51.668271 -170.799207 -20.864408 -3.215286 -1.872606 1.924647 152.362164 30.308080 -3.144436 -2.654966 -1.527891 1.513071 143.091165 27.890956 -34.023737 -2.018831 -1.152003 1.108065 -0.000001 0.000001 0.000004 -9.108371 -0.517548 2.260109 97.231178 14.155237 -16.093095 -3.700069 0.000341 0.001489 93.878587 11.846957 -12.646105 -2.850078 0.000371 -0.000273 92.117546 10.126399 -10.504695 -2.772163 -0.000001 -0.000021 -0.000002 0.000001 -0.000000 -9.532579 0.000277 0.000202 85.371921 14.667512 -13.669081 -3.700063 0.000318 0.003943 86.181230 11.629270 -10.795333 -2.950057 0.000337 -0.001838 88.307092 11.369399 -11.033529 -2.946639 0.000002 -0.000155 0.000003 -0.000001 -0.000000 -9.103710 -0.042766 -1.864908 82.275257 17.483435 -15.260611 -3.379322 0.000323 -0.000859 84.117844 9.534543 -8.622059 -2.889736 0.000339 0.000612 91.416324 6.820165 -7.037049 -2.638809 -0.000013 0.000942 0.000005 -0.000001 0.000000 -8.076745 -0.486394 -3.806075 73.979159 18.426351 -13.814599 -3.600040 0.000258 -0.003581 76.073049 8.191939 -6.134354 -2.100007 0.000310 -0.005543 81.102049 4.279576 -3.477897 -2.115793 -0.000026 -0.003679 0.000001 0.000003 -0.000005 4.570446 11.014691 -2.160851 -0.000018 0.000010 -0.000021 10.592400 -0.524480 -2.232351 72.659320 -13.339292 9.829792 27.841835 0.000074 -0.000174 108.228159 -71.929596 90.166167 28.328831 -0.000028 0.000023 0.000024 -0.000089 0.000000 2.466161 -1.576167 2.681878 -18.429493 160.933832 -54.559930 3.217859 -1.871813 1.916406 162.233440 -23.379577 36.265460 2.656095 -1.528664 1.514476 136.310044 -28.694653 55.837394 2.020898 -1.154081 1.115144 -0.000003 0.000004 0.000006 9.109388 -0.517855 2.259745 85.645941 -17.610111 16.326671 3.700040 0.000168 -0.000478 85.116260 -11.813507 10.868539 2.850047 0.000192 0.000217 83.226067 -8.806935 7.824888 2.774886 -0.000046 -0.000026 0.000000 -0.000002 0.000001 9.533459 0.000208 -0.000092 84.602685 -17.122938 15.593132 3.700038 0.000179 -0.000376 86.596321 -10.642721 10.029303 2.950061 0.000162 -0.000191 86.826259 -10.808959 10.232127 2.952873 -0.000030 0.000067 0.000001 0.000001 -0.000000 9.104599 -0.042861 -1.865227 83.831105 -16.866194 15.164400 3.150061 0.000177 -0.000101 88.981246 -12.785587 12.563867 2.950035 0.000174 -0.000079 90.775905 -11.403032 11.559234 2.644309 0.000031 0.000055 0.000002 0.000001 0.000000 8.077852 -0.486746 -3.806382 72.320119 -19.966634 15.114030 3.600005 0.000148 0.014588 73.458842 -18.174937 14.018741 2.100053 0.000146 0.007554 76.586221 -13.821392 11.324781 2.125480 -0.000001 0.007517 0.000001 -0.000001 0.000000 -8.207786 -6.751667 -1.599560 -0.077001 -0.000003 0.000080 -0.000002 -44.370110 0.345938 0.153719 -0.000000 -0.000000 0.000000 -44.423679 -3.043532 -0.076700 0.000000 -0.000002 -0.000006 -8.728667 10.710559 -0.000009 -0.000000 -0.000000 -0.000001 -0.000679 9.278123 0.000000 -0.000000 -0.000000 8.207792 -6.751710 -1.599556 -0.074518 -0.000003 0.000081 -0.000002 -44.370014 0.346960 0.148822 0.000002 0.000000 -0.000001 -44.423664 -3.044403 -0.074314 0.000000 -0.000002 -0.000004 -8.728671 10.710558 0.000007 -0.000000 -0.000000 0.000000 -0.000680 9.278137 -0.000000 0.000000 -0.000001 
0.000006 104.270477 1.554256 0.000010 0.000003 -0.000113 -0.000005 10.181587 0.131522 0.000001 -0.000003 0.000084 -0.000000 9.893967 -1.470711 0.000001 0.000000 -0.000000 -0.000000 9.220802 -1.370642 0.000000 -0.000000 -0.000000 0.000001 16.740433 -2.049030 0.000000 -0.000000 -0.000000 0.000000 9.617859 1.685014 0.000000 0.000000 0.000000 0.000002 22.037384 7.501101 0.000000 -0.000000 0.000000 -4.569968 11.014880 -2.160881 0.000008 0.000001 -0.000038 -10.592850 -0.524814 -2.231822 69.615774 46.980380 -33.624376 -27.841516 0.000016 0.000577 -38.167865 102.705684 46.791840 -28.328840 0.000022 0.000026 -0.000322 -0.000045 0.000006 -2.464420 -1.573767 2.682312 -47.823687 -161.738456 -9.902562 -3.215279 -1.872576 1.924662 151.792089 30.996648 2.040904 -2.654971 -1.527864 1.513072 144.224075 27.860914 -31.715031 -2.018819 -1.152000 1.108059 -0.000002 -0.000002 0.000005 -9.108370 -0.517542 2.260128 102.187601 14.130688 -17.517767 -3.700043 0.000334 0.001526 100.175420 11.293780 -13.455240 -2.850062 0.000384 -0.000247 99.300241 8.317684 -9.782907 -2.772156 -0.000000 -0.000017 -0.000000 -0.000002 -0.000000 -9.532580 0.000296 0.000223 94.247041 11.153023 -12.151317 -3.700060 0.000349 0.003979 94.539592 9.263839 -9.925761 -2.950055 0.000335 -0.001821 93.646681 9.314539 -9.916754 -2.946625 0.000014 -0.000165 0.000001 -0.000001 0.000000 -9.103687 -0.042739 -1.864868 94.062476 12.283279 -13.133362 -3.379318 0.000320 -0.000811 94.915157 9.653618 -10.533659 -2.889750 0.000355 0.000631 97.050493 8.054353 -9.159950 -2.638811 -0.000016 0.000950 0.000000 0.000001 0.000001 -8.076741 -0.486362 -3.806040 86.430238 13.491516 -12.546106 -3.600048 0.000261 -0.003536 87.472675 7.980200 -7.298972 -2.100008 0.000321 -0.005492 88.644271 5.251675 -4.915962 -2.115763 -0.000040 -0.003676 0.000000 0.000002 -0.000005 4.570446 11.014691 -2.160851 -0.000018 0.000010 -0.000021 10.592456 -0.524483 -2.232409 69.752569 -35.120628 24.877077 27.841839 0.000037 -0.000187 116.085458 -76.730707 103.519720 28.328846 -0.000030 0.000018 0.000024 -0.000090 0.000001 2.466243 -1.576070 2.681852 9.729767 160.592651 -94.747114 3.217848 -1.871796 1.916398 164.840701 -26.177764 23.582589 2.656096 -1.528628 1.514454 145.539501 -26.411641 44.901828 2.020879 -1.154084 1.115149 0.000000 0.000000 0.000004 9.109398 -0.517836 2.259752 94.995193 -18.143957 19.753956 3.700047 0.000187 -0.000461 94.724260 -13.138120 14.275831 2.850041 0.000231 0.000204 94.078568 -10.241907 10.992372 2.774885 -0.000032 -0.000027 0.000001 0.000002 0.000001 9.533481 0.000227 -0.000089 93.208778 -16.071935 16.975696 3.700066 0.000209 -0.000369 96.336799 -10.834820 12.092777 2.950037 0.000197 -0.000201 96.478164 -10.053651 11.255696 2.952887 -0.000018 0.000062 0.000000 0.000002 0.000000 9.104583 -0.042822 -1.865215 93.617428 -15.338349 16.327647 3.150061 0.000216 -0.000100 98.042946 -12.647156 14.542864 2.950028 0.000202 -0.000078 97.962555 -10.651490 12.235739 2.644316 0.000014 0.000060 -0.000000 0.000000 0.000001 8.077846 -0.486705 -3.806400 86.558277 -18.465889 17.968945 3.600030 0.000186 0.014564 85.891323 -16.435822 15.801866 2.100030 0.000192 0.007560 85.646918 -12.093938 11.661976 2.125490 -0.000015 0.007513 -0.000001 -0.000000 -0.000001 -8.207786 -6.751667 -1.599560 -0.077001 -0.000003 0.000080 -0.000002 -44.370110 0.345938 0.153719 -0.000000 -0.000000 0.000000 -44.423679 -3.043532 -0.076700 0.000000 -0.000002 -0.000006 -8.728667 10.710559 -0.000009 -0.000000 -0.000000 -0.000001 -0.000679 9.278123 0.000000 -0.000000 -0.000000 8.207792 -6.751710 -1.599556 -0.074518 -0.000003 0.000081 -0.000002 -44.370014 0.346960 0.148822 0.000002 0.000000 -0.000001 -44.423664 -3.044403 -0.074314 0.000000 -0.000002 -0.000004 -8.728671 10.710558 0.000007 -0.000000 -0.000000 0.000000 -0.000680 9.278137 -0.000000 0.000000 -0.000001 
